<?xml version="1.0" standalone="no"?>
<!DOCTYPE svg PUBLIC "-//W3C//DTD SVG 20010904//EN"
 "http://www.w3.org/TR/2001/REC-SVG-20010904/DTD/svg10.dtd">
<svg version="1.0" xmlns="http://www.w3.org/2000/svg"
 width="708.000000pt" height="239.000000pt" viewBox="0 0 708.000000 239.000000"
 preserveAspectRatio="xMidYMid meet">
<metadata>
Created by potrace 1.16, written by Peter Selinger 2001-2019
</metadata>
<g transform="translate(0.000000,239.000000) scale(0.100000,-0.100000)"
fill="#000000" stroke="none">
<path d="M1006 2324 c-81 -25 -141 -96 -199 -234 -80 -190 -623 -1493 -636
-1527 -8 -20 -12 -64 -10 -117 4 -75 7 -89 34 -128 80 -114 269 -172 389 -120
61 27 113 84 148 161 44 98 605 1442 644 1543 50 130 44 228 -19 311 -31 41
-142 101 -215 116 -66 14 -75 13 -136 -5z m234 -469 c0 -2 -5 -15 -11 -28 -11
-23 -14 -24 -176 -30 -91 -4 -168 -9 -171 -12 -7 -6 118 -135 131 -135 4 0 16
20 27 45 17 39 23 45 49 45 l30 0 -31 -75 -31 -76 25 -27 c22 -24 24 -30 14
-54 l-12 -28 -100 108 c-202 217 -188 198 -174 232 12 28 15 29 84 33 120 5
346 7 346 2z m-428 -335 c40 -11 98 -70 98 -99 0 -27 5 -28 71 -19 33 5 63 8
65 5 3 -2 0 -16 -5 -29 -7 -19 -19 -27 -48 -32 -83 -14 -92 -18 -98 -38 -7
-20 -7 -20 -30 2 -20 18 -22 26 -14 53 19 65 -35 120 -98 100 -30 -10 -80 -92
-70 -116 3 -7 68 -40 146 -72 102 -42 140 -63 136 -73 -3 -7 -5 -18 -5 -23 0
-5 -6 -9 -13 -9 -13 0 -335 134 -344 144 -3 2 13 42 35 88 35 75 44 87 83 106
51 26 44 25 91 12z m108 -424 c0 -3 -4 -16 -10 -30 -9 -25 -12 -26 -112 -27
-57 -1 -134 -4 -172 -8 l-68 -6 62 -67 c34 -38 66 -68 71 -68 6 0 19 20 30 45
17 39 24 45 51 45 20 0 28 -4 25 -12 -3 -7 -17 -42 -32 -77 l-26 -64 26 -27
c23 -24 25 -30 14 -53 l-12 -27 -96 103 c-212 225 -192 200 -179 235 l12 31
86 4 c152 5 330 7 330 3z m-339 -303 c40 -39 50 -85 32 -147 l-14 -48 -23 22
c-21 19 -23 25 -13 56 19 61 -37 108 -108 90 -24 -6 -70 -88 -62 -110 3 -7 67
-39 144 -70 76 -32 140 -60 141 -61 9 -8 -11 -45 -23 -45 -14 0 -326 128 -337
139 -14 13 53 150 89 182 33 29 41 31 90 27 44 -4 60 -11 84 -35z"/>
<path d="M2439 1980 l-896 -5 -48 -30 c-102 -64 -147 -160 -147 -313 1 -153
48 -262 140 -327 42 -29 48 -30 190 -37 81 -3 1161 -7 2400 -7 l2252 -1 0 55
0 55 -624 2 -624 3 -39 31 c-21 16 -50 54 -65 84 -24 46 -28 66 -28 137 0 125
37 193 125 234 38 17 78 19 648 19 l607 0 0 55 0 55 -1497 -2 c-824 -2 -1901
-5 -2394 -8z m-409 -190 l0 -30 -100 0 -100 0 0 -55 0 -55 74 0 c58 0 75 -3
80 -16 15 -40 9 -44 -74 -44 l-80 0 0 -80 0 -80 -30 0 -30 0 0 195 0 195 130
0 130 0 0 -30z m286 -160 c46 -102 83 -188 84 -192 0 -5 -13 -8 -29 -8 -25 0
-31 7 -49 48 -11 26 -44 97 -73 157 l-52 110 -38 -80 c-21 -44 -38 -86 -38
-92 -1 -9 15 -13 48 -13 45 0 50 -2 60 -30 l10 -30 -78 0 -77 0 -17 -35 c-13
-28 -22 -35 -46 -35 l-29 0 86 195 87 195 34 -2 c33 -3 34 -4 117 -188z m377
158 c36 -25 57 -68 57 -114 0 -39 -30 -98 -55 -108 -22 -8 -18 -26 15 -76 16
-25 30 -48 30 -52 0 -5 -13 -8 -29 -8 -23 0 -35 10 -65 55 -23 35 -43 55 -56
55 -17 0 -18 3 -9 30 9 24 17 30 40 30 41 0 69 32 69 78 0 53 -24 72 -99 79
l-61 6 0 -167 0 -166 -30 0 -30 0 0 196 0 196 98 -7 c72 -6 104 -13 125 -27z
m262 -63 c33 -52 63 -95 67 -95 5 0 36 43 70 95 58 87 66 95 96 95 l32 0 0
-195 0 -195 -30 0 -30 0 0 135 c0 74 -4 135 -8 135 -4 0 -34 -40 -66 -90 -32
-49 -59 -90 -61 -90 -1 0 -29 40 -61 90 -33 49 -62 90 -66 90 -5 0 -8 -61 -8
-135 l0 -135 -30 0 -30 0 0 195 0 195 33 0 c30 0 36 -7 92 -95z m654 -92 c47
-104 86 -191 88 -195 2 -5 -10 -8 -27 -8 -28 0 -33 5 -52 48 -56 129 -118 252
-126 252 -5 0 -25 -37 -45 -82 l-36 -83 50 -3 c43 -3 51 -7 64 -33 l16 -29
-81 0 -81 0 -15 -35 c-12 -29 -19 -35 -45 -35 -21 0 -29 4 -26 13 22 55 161
355 169 365 6 6 22 12 37 12 25 0 32 -12 110 -187z m394 173 c59 -27 64 -32
43 -55 -17 -19 -21 -19 -47 -6 -15 8 -51 15 -80 15 -46 0 -55 -4 -90 -39 -36
-35 -39 -43 -39 -92 0 -37 7 -65 20 -87 35 -57 120 -78 182 -46 29 15 32 15
51 -4 l20 -21 -34 -20 c-130 -79 -299 16 -299 168 0 143 146 243 273 187z
m171 8 c14 -5 16 -32 16 -196 l0 -189 -27 3 -28 3 -3 184 c-2 141 1 186 10
193 16 9 13 9 32 2z m395 -137 c35 -78 74 -166 87 -194 l24 -53 -31 0 c-29 0
-33 5 -75 98 -24 53 -57 124 -73 157 l-29 60 -41 -88 c-23 -48 -41 -90 -41
-92 0 -3 22 -5 48 -5 43 0 50 -3 60 -25 7 -14 12 -28 12 -30 0 -3 -34 -5 -75
-5 l-75 0 -17 -35 c-13 -28 -23 -35 -45 -35 -15 0 -28 2 -28 5 0 3 30 72 66
153 37 81 75 166 86 190 17 37 23 42 51 42 32 0 33 -2 96 -143z"/>
<path d="M5127 1813 c-4 -3 -7 -14 -7 -23 0 -15 34 -17 377 -23 207 -4 463 -7
570 -7 l193 0 0 30 0 30 -563 0 c-310 0 -567 -3 -570 -7z"/>
<path d="M5060 1681 c0 -10 7 -22 16 -25 9 -3 279 -6 600 -6 l584 0 0 25 0 25
-600 0 c-582 0 -600 -1 -600 -19z"/>
<path d="M5062 1568 l3 -23 598 -3 597 -2 0 25 0 25 -601 0 -600 0 3 -22z"/>
<path d="M5127 1473 c-4 -3 -7 -15 -7 -25 0 -17 24 -18 570 -18 l570 0 0 25 0
25 -563 0 c-310 0 -567 -3 -570 -7z"/>
<path d="M1160 1100 l0 -70 600 0 c666 0 638 3 701 -67 59 -65 74 -125 74
-288 -1 -122 -4 -147 -24 -198 -26 -65 -69 -120 -112 -142 -23 -12 -136 -16
-633 -22 l-606 -6 0 -70 0 -70 2795 6 c2745 6 2795 7 2832 26 75 39 131 119
170 246 15 49 18 94 18 240 0 172 -1 184 -28 259 -37 105 -84 168 -149 200
l-52 26 -2793 0 -2793 0 0 -70z m2213 -220 l87 0 0 -30 0 -30 -110 0 -110 0 0
-55 0 -54 82 -3 c79 -3 82 -4 89 -30 4 -15 4 -29 1 -32 -3 -3 -43 -6 -89 -6
l-83 0 0 -55 0 -55 110 0 110 0 0 -30 0 -30 -140 0 -140 0 0 211 0 212 53 -7
c28 -3 91 -6 140 -6z m467 -25 l0 -35 -60 0 -60 0 0 -175 0 -175 -35 0 -35 0
0 175 0 175 -60 0 -60 0 0 35 0 35 155 0 155 0 0 -35z m380 0 l0 -35 -65 0
-65 0 0 -175 0 -175 -30 0 -30 0 0 175 0 175 -65 0 -65 0 0 35 0 35 160 0 160
0 0 -35z m350 0 l0 -35 -105 0 -105 0 0 -55 0 -55 68 0 c77 0 90 -6 94 -40 3
-25 2 -25 -79 -28 l-83 -3 0 -54 0 -55 105 0 105 0 0 -30 0 -30 -140 0 -140 0
0 204 0 205 48 4 c26 2 89 4 140 5 l92 2 0 -35z m302 9 c37 -19 69 -68 75
-113 6 -44 -16 -95 -55 -128 -29 -24 -28 -28 23 -110 l26 -43 -35 0 c-32 0
-39 5 -70 54 -21 33 -43 56 -59 60 -23 6 -24 8 -14 36 9 23 18 30 38 30 14 0
38 9 53 21 21 16 26 29 26 64 0 61 -31 85 -111 85 l-59 0 0 -175 0 -175 -30 0
-30 0 0 211 0 211 98 -7 c53 -4 109 -13 124 -21z m409 7 c7 -7 179 -388 179
-397 0 -3 -14 -4 -32 -2 -31 3 -34 8 -103 161 -40 86 -75 160 -78 164 -4 3
-27 -36 -51 -88 -51 -105 -51 -106 36 -108 31 -1 38 -5 47 -31 l10 -30 -85 0
-84 0 -17 -35 c-14 -30 -22 -35 -50 -35 l-33 0 26 58 c14 31 43 95 64 142 108
241 95 220 132 214 18 -4 36 -9 39 -13z m487 -13 c36 -22 72 -83 72 -123 0
-35 -26 -85 -58 -112 -26 -22 -26 -23 -10 -55 9 -18 27 -48 38 -65 l22 -33
-36 0 c-33 0 -39 5 -71 55 -22 33 -43 55 -54 55 -26 0 -30 9 -20 40 8 21 18
29 46 33 52 9 73 32 73 83 0 60 -32 84 -111 84 l-59 0 0 -175 0 -175 -30 0
-30 0 0 211 0 211 98 -7 c70 -5 106 -12 130 -27z m640 -171 c51 -112 92 -207
92 -211 0 -4 -14 -6 -32 -4 -30 3 -34 9 -102 160 -39 86 -75 157 -81 158 -5 1
-29 -38 -52 -88 l-41 -90 57 -6 c49 -6 60 -11 70 -32 6 -14 11 -27 11 -29 0
-3 -38 -5 -86 -5 l-85 0 -15 -35 c-12 -30 -19 -35 -49 -35 l-34 0 33 73 c18
39 59 131 92 204 59 132 63 137 115 142 11 1 42 -57 107 -202z m-3468 18 l0
-175 85 0 85 0 0 -30 0 -30 -120 0 -120 0 0 144 c0 78 3 171 6 205 7 59 8 61
35 61 l29 0 0 -175z m3050 -30 l0 -205 -35 0 -35 0 0 205 0 205 35 0 35 0 0
-205z"/>
<path d="M1230 905 l0 -35 568 2 567 3 0 30 0 30 -567 3 -568 2 0 -35z"/>
<path d="M1230 755 l0 -35 598 2 597 3 0 25 0 25 -255 6 c-140 3 -409 7 -597
8 l-343 1 0 -35z"/>
<path d="M1230 595 l0 -35 598 2 597 3 3 24 c2 13 -2 28 -10 32 -7 5 -277 9
-600 9 l-588 0 0 -35z"/>
<path d="M1230 435 l0 -35 509 0 c279 0 536 3 570 6 60 7 62 8 59 33 l-3 26
-567 3 -568 2 0 -35z"/>
</g>
</svg>
